<svg width="21" height="20" viewBox="0 0 21 20" fill="none" xmlns="http://www.w3.org/2000/svg">
<path d="M8.42333 12.4107C7.12833 11.704 6.25 10.3298 6.25 8.75065C6.25 6.44982 8.11583 4.58398 10.4167 4.58398C11.9958 4.58398 13.37 5.46232 14.0767 6.75732" stroke="#D1D6E0" stroke-width="1.4" stroke-miterlimit="10"/>
<path d="M5.85052 14.9832C2.87802 13.2673 1.36719 10.4173 1.36719 10.4173C1.36719 10.4173 4.58302 4.58398 10.4164 4.58398C12.1722 4.58398 13.7022 5.11232 14.9822 5.85148" stroke="#D1D6E0" stroke-width="1.4" stroke-miterlimit="10"/>
<path d="M17.6233 7.92578C18.9049 9.22995 19.4666 10.4183 19.4666 10.4183C19.4666 10.4183 16.2508 16.2516 10.4174 16.2516C10.0566 16.2516 9.70495 16.2291 9.36328 16.1874" stroke="#D1D6E0" stroke-width="1.4" stroke-miterlimit="10" stroke-linecap="square"/>
<path d="M18.7487 2.08398L2.08203 18.7507" stroke="#D1D6E0" stroke-width="1.4" stroke-miterlimit="10" stroke-linecap="square"/>
</svg>
