<svg width="85" height="30" viewBox="0 0 85 30" fill="none" xmlns="http://www.w3.org/2000/svg">
<path fill-rule="evenodd" clip-rule="evenodd" d="M9.02687 4C9.51791 4 10.0351 4.01579 10.1709 4.04738C10.3119 4.0737 10.6672 4.1474 10.9701 4.21058C11.2731 4.27375 11.7537 4.40536 12.041 4.50538C12.3284 4.60541 12.809 4.81598 13.1119 4.96865C13.4149 5.12132 13.8746 5.38981 14.1306 5.56353C14.3866 5.73726 14.7993 6.05839 15.0448 6.26896C15.2903 6.48481 15.6612 6.85858 15.8701 7.10074C16.0791 7.34817 16.3978 7.75879 16.5702 8.02202C16.7425 8.28524 17.009 8.74324 17.1604 9.04858C17.3119 9.35391 17.5209 9.83824 17.6201 10.1278C17.7194 10.4173 17.85 10.8806 17.9075 11.1543C17.9649 11.4281 18.0381 11.8861 18.0694 12.1651C18.1007 12.4494 18.1269 12.8811 18.1269 13.1285C18.1269 13.3759 18.1007 13.8076 18.0694 14.0866C18.0381 14.3709 17.9649 14.8289 17.9075 15.1027C17.85 15.3764 17.7194 15.8397 17.6201 16.1292C17.5209 16.4188 17.3119 16.9031 17.1604 17.2084C17.009 17.5138 16.7425 17.977 16.5702 18.235C16.3978 18.4929 16.0791 18.9088 15.8701 19.1563C15.656 19.4037 15.2851 19.7775 15.0448 19.988C14.7993 20.1986 14.3866 20.5197 14.1306 20.6935C13.8746 20.8672 13.4149 21.1357 13.1119 21.2883C12.809 21.441 12.3284 21.6516 12.041 21.7516C11.7537 21.8516 11.294 21.9832 11.0224 22.0412C10.7507 22.0991 10.2963 22.1728 10.0142 22.2044C9.73731 22.2359 9.30896 22.2623 9.06343 22.2623C8.81791 22.2623 8.38955 22.2359 8.10746 22.2044C7.8306 22.1728 7.37612 22.0991 7.10448 22.0412C6.83284 21.9832 6.37313 21.8516 6.08582 21.7516C5.79851 21.6516 5.31791 21.441 5.01493 21.2883C4.71194 21.1357 4.25224 20.8672 3.99627 20.6935C3.73507 20.5197 3.32761 20.1986 3.08209 19.988C2.84179 19.7775 2.4709 19.4037 2.25672 19.1563C2.04776 18.9088 1.7291 18.4929 1.55672 18.235C1.38433 17.977 1.11791 17.5138 0.966418 17.2084C0.814925 16.9031 0.60597 16.4188 0.506716 16.1292C0.407463 15.8397 0.276866 15.3764 0.219403 15.1027C0.16194 14.8289 0.088806 14.3709 0.0574627 14.0866C0.0261194 13.8076 0 13.3759 0 13.1285C0 12.8811 0.0261194 12.4494 0.0574627 12.1651C0.088806 11.8861 0.16194 11.4281 0.219403 11.1543C0.276866 10.8806 0.407463 10.4173 0.506716 10.1278C0.60597 9.83824 0.814925 9.35391 0.966418 9.04858C1.11791 8.74324 1.38433 8.28524 1.55672 8.02202C1.7291 7.75879 2.04776 7.34817 2.25672 7.10074C2.4709 6.85331 2.84179 6.47954 3.08209 6.26896C3.32761 6.05839 3.73507 5.73726 3.99627 5.56353C4.25224 5.38981 4.71194 5.12132 5.01493 4.96865C5.31791 4.81598 5.79851 4.60541 6.08582 4.50538C6.37313 4.40536 6.84328 4.27375 7.1306 4.21584C7.41791 4.15793 7.75746 4.08423 7.88806 4.05791C8.01866 4.03159 8.5306 4.00526 9.02164 4H9.02687ZM6.95299 6.41637C6.68134 6.5006 6.25821 6.66906 6.01269 6.79014C5.76716 6.90596 5.35448 7.15339 5.09851 7.32711C4.83731 7.5061 4.40373 7.87988 4.13209 8.15363C3.86045 8.43264 3.55746 8.76956 3.46343 8.90644L3.29627 9.15386C4.03806 9.74874 4.45075 10.012 4.83731 10.2067C5.21343 10.3963 5.67313 10.5805 5.98657 10.6648C6.46194 10.7911 6.59254 10.8069 7.44925 10.8069C8.30597 10.8069 8.43657 10.7911 8.91194 10.6648C9.19925 10.5858 9.64851 10.4173 9.90448 10.2962C10.1604 10.1699 10.5261 9.96458 10.7142 9.83824C10.9022 9.70663 11.247 9.42761 11.4873 9.20651L11.9209 8.81168L13.3522 10.2541C12.741 10.9332 12.4642 11.2807 12.3336 11.4702C12.2082 11.6597 12.0045 12.0282 11.8791 12.2862C11.759 12.5441 11.5918 12.9969 11.5134 13.2864C11.3881 13.7655 11.3724 13.8971 11.3724 14.7605C11.3724 15.6238 11.3881 15.7554 11.5134 16.2345C11.597 16.5504 11.7799 17.0136 11.9679 17.3927C12.1612 17.7822 12.4224 18.1981 12.647 18.4877L13.0127 18.9457C13.394 18.6825 13.7284 18.3771 14.0052 18.1034C14.2769 17.8296 14.6478 17.3874 14.8202 17.1295C14.9978 16.8715 15.2276 16.4767 15.3373 16.2608C15.447 16.045 15.609 15.6291 15.703 15.3396C15.8022 15.05 15.9172 14.5867 15.959 14.313C16.006 14.034 16.0425 13.5075 16.0425 13.1285C16.0425 12.7495 16.006 12.223 15.959 11.944C15.9172 11.6703 15.8022 11.207 15.703 10.9174C15.609 10.6279 15.447 10.212 15.3373 9.99617C15.2276 9.78033 15.0396 9.44867 14.9142 9.25915C14.794 9.06963 14.5433 8.73798 14.3604 8.52213C14.1776 8.30629 13.8642 7.98516 13.6604 7.8167C13.4619 7.64824 13.1328 7.39555 12.9343 7.25867C12.7306 7.1218 12.391 6.92175 12.1769 6.8112C11.9627 6.70065 11.55 6.53745 11.2627 6.44269C10.9754 6.34267 10.5157 6.22685 10.244 6.18473C9.94105 6.13209 9.46567 6.1005 9.01642 6.10577C8.61418 6.10577 8.09702 6.14262 7.86716 6.18473C7.63731 6.22685 7.22463 6.32687 6.95299 6.41637ZM2.16791 11.9703C2.12612 12.202 2.09478 12.7231 2.09478 13.1285C2.09478 13.5549 2.13134 14.0656 2.17836 14.3393C2.22015 14.5973 2.33507 15.05 2.4291 15.3396C2.52836 15.6291 2.6903 16.045 2.8 16.2608C2.9097 16.4767 3.09254 16.8031 3.21269 16.9873C3.33284 17.1663 3.43731 17.3137 3.45299 17.3137C3.46866 17.3137 4.45075 16.3345 5.63657 15.1448L7.78881 12.9706C6.83806 12.9074 6.36269 12.8547 6.11716 12.8126C5.87164 12.7705 5.4694 12.6758 5.21343 12.6021C4.96269 12.5284 4.53955 12.3757 4.27313 12.2599C4.01194 12.1441 3.62537 11.9493 3.42687 11.8282C3.22313 11.7071 2.91493 11.4913 2.73209 11.3544C2.55448 11.2175 2.39776 11.1017 2.38209 11.1017C2.37164 11.1017 2.33507 11.2017 2.29851 11.3281C2.26716 11.4492 2.2097 11.7387 2.16791 11.9703ZM7.04701 16.603C5.80373 17.8612 4.91045 18.8088 4.94179 18.8299C4.97313 18.8509 5.12985 18.9562 5.29702 19.0668C5.45896 19.1721 5.76716 19.3458 5.9709 19.4511C6.17985 19.5564 6.58731 19.7196 6.87463 19.8196C7.16194 19.9143 7.60597 20.0302 7.86716 20.0723C8.13881 20.1196 8.64552 20.1565 9.06866 20.1565C9.4709 20.1565 9.98806 20.1249 10.2179 20.0828C10.4478 20.0407 10.7351 19.9828 10.8552 19.9512C10.9806 19.9196 11.0799 19.8827 11.0799 19.867C11.0799 19.8512 10.9649 19.6932 10.8291 19.5142C10.6933 19.33 10.4791 19.0194 10.359 18.8141C10.2388 18.6088 10.0455 18.2245 9.9306 17.9612C9.81567 17.6927 9.66418 17.2663 9.59105 17.0136C9.51791 16.7557 9.42388 16.3345 9.38209 16.0766C9.33508 15.8186 9.28284 15.3343 9.25672 15.0079L9.2097 14.413L7.04701 16.603ZM74.9104 8.838L75.1769 9.53817C75.3231 9.92247 76.044 11.7966 76.7858 13.7023C77.5224 15.6133 78.1493 17.1821 78.1754 17.1926C78.2067 17.1979 78.9328 15.3238 81.3619 8.84326L84 8.838L83.8799 9.16966C83.8119 9.34865 82.3388 13.1917 80.6045 17.7085C78.8754 22.2254 77.4336 25.9421 77.4022 25.9631C77.3709 25.9842 76.8328 26 76.206 26C75.344 26 75.0619 25.9842 75.041 25.9368C75.0306 25.9 75.4485 24.6839 76.9269 20.604L76.603 19.8143C76.4306 19.3826 75.3649 16.7452 74.2418 13.9603C73.1187 11.1701 72.194 8.88012 72.194 8.86432C72.194 8.85379 72.8052 8.838 74.9104 8.838ZM28.8254 4.57909C29.5672 4.57382 29.9172 4.60014 30.3925 4.68437C30.7321 4.74228 31.2545 4.87389 31.5522 4.97392C31.8552 5.07921 32.2888 5.2582 32.5187 5.37928C32.7485 5.50036 33.1246 5.74252 33.3545 5.91625C33.5843 6.08471 33.9291 6.38478 34.1172 6.5743C34.3052 6.76382 34.5978 7.10601 34.7701 7.33764C34.9425 7.56928 35.2037 7.99569 35.35 8.28524C35.4963 8.57478 35.6843 8.9854 35.7679 9.19598C35.8515 9.40129 35.9037 9.58555 35.8881 9.59608C35.8776 9.6066 35.2925 9.77507 34.5978 9.96459C33.903 10.1541 33.3075 10.312 33.2761 10.312C33.25 10.312 33.2239 10.2857 33.2239 10.2489C33.2239 10.212 33.1455 9.99091 33.0515 9.75927C32.9575 9.52764 32.7694 9.16966 32.6336 8.95908C32.503 8.7485 32.2575 8.4379 32.0903 8.27471C31.9231 8.10625 31.6724 7.8904 31.5261 7.79038C31.3851 7.69036 31.1239 7.54295 30.9515 7.46399C30.7791 7.37976 30.45 7.26394 30.2201 7.20077C29.8701 7.10601 29.656 7.08495 28.8881 7.07968C28.1881 7.07968 27.8903 7.10074 27.6082 7.16918C27.4097 7.22182 27.1172 7.31132 26.9552 7.37449C26.7985 7.43766 26.5269 7.57454 26.3545 7.67456C26.1821 7.77459 25.8425 8.05887 25.597 8.30629C25.3045 8.60637 25.0746 8.90117 24.9231 9.18019C24.7925 9.41182 24.6097 9.82771 24.5209 10.1015C24.4269 10.3805 24.3172 10.7858 24.2701 11.0122C24.2284 11.2333 24.1657 11.7229 24.1343 12.0914C24.0873 12.5863 24.0925 12.9548 24.1343 13.497C24.1657 13.9024 24.2388 14.4393 24.291 14.6815C24.3433 14.9289 24.4634 15.3343 24.5522 15.5765C24.641 15.8239 24.7873 16.1555 24.8761 16.3135C24.9649 16.4767 25.1373 16.7346 25.2627 16.8926C25.3828 17.0558 25.5866 17.2769 25.7119 17.3979C25.8373 17.5138 26.0567 17.6875 26.1978 17.7875C26.344 17.8875 26.6104 18.0349 26.7881 18.1139C26.9657 18.1981 27.3209 18.314 27.5716 18.3771C27.9425 18.4719 28.1828 18.4929 28.8358 18.4929C29.3843 18.4929 29.7657 18.4666 30.0112 18.4087C30.2149 18.3666 30.544 18.2613 30.7425 18.1823C30.9463 18.1034 31.2388 17.9507 31.3955 17.8507C31.5575 17.7507 31.8239 17.5348 31.991 17.3716C32.1582 17.2084 32.3985 16.9347 32.5239 16.7609C32.6493 16.5872 32.8425 16.245 32.9575 15.9976C33.0724 15.7554 33.1821 15.487 33.1978 15.408C33.2134 15.329 33.2604 15.2606 33.3022 15.2606C33.3493 15.2606 33.9396 15.4185 34.6239 15.608C35.3082 15.7976 35.8724 15.9608 35.8776 15.966C35.8881 15.966 35.8306 16.1503 35.7522 16.3661C35.6791 16.5872 35.5328 16.9294 35.4336 17.1295C35.3343 17.3348 35.1201 17.7033 34.9634 17.9454C34.8015 18.1929 34.4567 18.6193 34.1903 18.893C33.9239 19.1721 33.5216 19.53 33.297 19.6932C33.0724 19.8564 32.6754 20.0986 32.4142 20.2302C32.1582 20.3618 31.7716 20.525 31.5522 20.5987C31.3381 20.6724 30.9149 20.783 30.6119 20.8514C30.1418 20.9514 29.9067 20.9672 28.8881 20.9725C27.9687 20.9725 27.6082 20.9514 27.2164 20.8777C26.9448 20.8251 26.4746 20.704 26.1716 20.5987C25.8739 20.4987 25.4194 20.3039 25.1634 20.167C24.9075 20.0302 24.5104 19.7775 24.2754 19.5985C24.0403 19.4195 23.6642 19.0773 23.4396 18.8351C23.2097 18.593 22.9015 18.2034 22.75 17.9718C22.5985 17.7401 22.3843 17.3611 22.2694 17.1295C22.1545 16.8978 21.9821 16.4977 21.8933 16.2345C21.7993 15.9765 21.6791 15.5607 21.6216 15.3132C21.5642 15.0711 21.4806 14.6183 21.444 14.313C21.4022 14.0077 21.3709 13.3128 21.3709 12.76C21.3709 12.1809 21.4022 11.5386 21.444 11.2333C21.4858 10.9438 21.5537 10.5437 21.6007 10.3384C21.6478 10.1383 21.7575 9.74874 21.8463 9.46973C21.9351 9.19598 22.1179 8.7485 22.2537 8.46949C22.3896 8.19574 22.6246 7.77985 22.7813 7.54822C22.9328 7.31658 23.241 6.94281 23.4552 6.71644C23.6746 6.48481 23.9881 6.18473 24.1604 6.04786C24.3328 5.91098 24.6619 5.68461 24.8918 5.54774C25.1216 5.41086 25.4978 5.22134 25.7276 5.12659C25.9575 5.03183 26.3231 4.90548 26.5373 4.84231C26.7567 4.7844 27.1433 4.70017 27.3993 4.65805C27.6657 4.61594 28.2873 4.58435 28.8254 4.57909ZM37.7687 4.57382H40.3806V20.6829H37.7687V4.57382ZM68.3284 4.57382H70.9403V20.6829H68.3284V4.57382ZM60.9261 8.5274C61.5112 8.52213 61.8246 8.54846 62.2321 8.63269C62.5246 8.6906 62.9425 8.81168 63.1567 8.90117C63.3761 8.9854 63.7261 9.16439 63.9403 9.30127C64.1702 9.43814 64.5358 9.74874 64.8022 10.0225C65.1052 10.3278 65.3612 10.6542 65.5179 10.9227C65.6537 11.1491 65.8209 11.486 65.894 11.6703C65.9724 11.8492 66.0925 12.2072 66.1657 12.4599C66.2388 12.7126 66.3328 13.1864 66.3746 13.5128C66.4164 13.8392 66.4478 14.4025 66.4478 14.7605C66.4478 15.2343 66.4321 15.4291 66.3851 15.4606C66.3485 15.4817 64.4261 15.4922 57.9067 15.4659L57.9485 15.7818C57.9694 15.9608 58.053 16.2977 58.1313 16.5398C58.2097 16.7767 58.3612 17.1084 58.4709 17.2769C58.5806 17.4401 58.7687 17.677 58.894 17.8033C59.0246 17.9244 59.2388 18.0876 59.3798 18.1665C59.5209 18.2455 59.8187 18.3613 60.0485 18.4192C60.3202 18.4877 60.6336 18.5245 60.9366 18.5245C61.2448 18.5245 61.5582 18.4877 61.8246 18.4192C62.0545 18.3613 62.3522 18.2508 62.4776 18.1823C62.6082 18.1086 62.8224 17.9612 62.9478 17.8507C63.0784 17.7401 63.303 17.4716 63.444 17.2611C63.5851 17.0452 63.7 16.861 63.7052 16.8557C63.7052 16.8504 64.1284 16.9768 64.6455 17.1347C65.1627 17.2927 65.7478 17.4716 66.291 17.6296L66.0925 18.0402C65.9776 18.2613 65.7791 18.593 65.6485 18.7772C65.5127 18.9562 65.2828 19.23 65.1313 19.3826C64.9799 19.5353 64.703 19.7669 64.5149 19.9038C64.3321 20.0354 64.0239 20.2302 63.8358 20.3302C63.653 20.4355 63.2873 20.5934 63.0261 20.6829C62.7701 20.7724 62.3575 20.883 62.1119 20.9251C61.8716 20.9672 61.3858 20.9988 61.041 20.9988C60.6963 20.9988 60.1948 20.962 59.9179 20.9198C59.6463 20.8725 59.2179 20.7672 58.9672 20.6829C58.7164 20.5987 58.3873 20.4618 58.2358 20.3881C58.0843 20.3092 57.797 20.1354 57.5933 19.9986C57.3948 19.8617 57.0918 19.6195 56.9246 19.4669C56.7522 19.3089 56.4754 18.9931 56.303 18.7614C56.1306 18.5298 55.8746 18.1034 55.7336 17.8138C55.5925 17.5243 55.4306 17.1347 55.3784 16.9452C55.3209 16.7609 55.2373 16.3924 55.1955 16.1292C55.1433 15.8397 55.1119 15.3448 55.1119 14.8394C55.1172 14.3814 55.1485 13.8181 55.1903 13.5497C55.2321 13.2917 55.3261 12.8653 55.4045 12.6021C55.4776 12.3441 55.6291 11.9387 55.744 11.7071C55.8537 11.4755 56.047 11.1333 56.1672 10.9438C56.2925 10.7595 56.559 10.4279 56.7679 10.2067C56.9716 9.99091 57.3112 9.69084 57.5254 9.54343C57.7343 9.39603 58.0582 9.20124 58.2358 9.11175C58.4134 9.01699 58.7321 8.88538 58.941 8.81694C59.15 8.74324 59.5052 8.65375 59.7351 8.61163C59.9701 8.56951 60.4978 8.53266 60.9261 8.5274ZM59.8396 10.9964C59.6672 11.0596 59.4321 11.1649 59.3172 11.228C59.2022 11.2965 58.9933 11.4702 58.847 11.6123C58.706 11.7598 58.5022 12.0388 58.3978 12.2388C58.2933 12.4389 58.1575 12.7705 58.0948 12.9706C58.0373 13.1759 57.9851 13.3707 57.9851 13.4075C57.9851 13.4602 58.5963 13.4707 60.8582 13.4707C63.5642 13.4707 63.7313 13.4654 63.7313 13.3812C63.7313 13.3285 63.6843 13.0916 63.6269 12.8547C63.5694 12.6126 63.4545 12.2757 63.3657 12.1019C63.2821 11.9282 63.1097 11.6755 62.9896 11.5439C62.8694 11.4123 62.6709 11.2438 62.556 11.1807C62.441 11.1122 62.2425 11.0175 62.1119 10.9701C61.9866 10.9227 61.6888 10.8701 61.459 10.849C61.2291 10.8279 60.8425 10.8279 60.597 10.849C60.3567 10.8701 60.0119 10.9332 59.8396 10.9964ZM42.6739 8.838H45.2963L45.3172 12.1177C45.3276 14.7921 45.3485 15.487 45.4164 15.8923C45.4582 16.1713 45.5418 16.524 45.5993 16.682C45.6515 16.8452 45.756 17.0926 45.8291 17.2347C45.9022 17.3821 46.0746 17.6296 46.2209 17.7875C46.3619 17.9507 46.597 18.1402 46.7381 18.2192C46.8739 18.2982 47.1455 18.3982 47.3284 18.4456C47.5164 18.4877 47.8351 18.5245 48.0336 18.5245C48.2373 18.5245 48.5873 18.4771 48.8172 18.4192C49.047 18.3613 49.3448 18.2508 49.4701 18.1718C49.6007 18.0928 49.8149 17.9244 49.9403 17.7875C50.0709 17.6559 50.2537 17.4032 50.3425 17.2347C50.4313 17.061 50.5463 16.7925 50.5881 16.6293C50.6351 16.4714 50.7082 16.0345 50.75 15.6554C50.8127 15.1237 50.8284 14.3025 50.8284 8.838H53.4403V20.6829H51.1418L51.147 20.0933C51.147 19.7669 51.1366 19.4879 51.1209 19.4721C51.1052 19.4616 50.959 19.5721 50.7918 19.7301C50.6246 19.8827 50.3269 20.1196 50.1231 20.2513C49.9246 20.3881 49.559 20.5724 49.3134 20.6671C49.0731 20.7566 48.6604 20.8725 48.3993 20.9251C48.0336 20.9935 47.7463 21.0041 47.0672 20.983C46.3985 20.962 46.1216 20.9304 45.8134 20.8461C45.5993 20.783 45.2388 20.6303 45.009 20.5092C44.7112 20.3565 44.4657 20.167 44.1679 19.867C43.891 19.5985 43.656 19.2984 43.4993 19.0246C43.3634 18.793 43.1858 18.414 43.1022 18.1823C43.0187 17.9507 42.8985 17.5243 42.8358 17.2347C42.7157 16.7188 42.7157 16.6451 42.6948 12.7758L42.6739 8.838Z" fill="#040406"/>
</svg>
