<svg width="84" height="22" viewBox="0 0 84 22" fill="none" xmlns="http://www.w3.org/2000/svg">
<g clip-path="url(#clip0_2303_24815)">
<path fill-rule="evenodd" clip-rule="evenodd" d="M9.02687 0C9.51791 0 10.0351 0.01579 10.1709 0.04738C10.3119 0.0737 10.6672 0.1474 10.9701 0.21058C11.2731 0.27375 11.7537 0.40536 12.041 0.50538C12.3284 0.60541 12.809 0.81598 13.1119 0.96865C13.4149 1.12132 13.8746 1.38981 14.1306 1.56353C14.3866 1.73726 14.7993 2.05839 15.0448 2.26896C15.2903 2.48481 15.6612 2.85858 15.8701 3.10074C16.0791 3.34817 16.3978 3.75879 16.5702 4.02202C16.7425 4.28524 17.009 4.74324 17.1604 5.04858C17.3119 5.35391 17.5209 5.83824 17.6201 6.1278C17.7194 6.4173 17.85 6.8806 17.9075 7.1543C17.9649 7.4281 18.0381 7.8861 18.0694 8.1651C18.1007 8.4494 18.1269 8.8811 18.1269 9.1285C18.1269 9.3759 18.1007 9.8076 18.0694 10.0866C18.0381 10.3709 17.9649 10.8289 17.9075 11.1027C17.85 11.3764 17.7194 11.8397 17.6201 12.1292C17.5209 12.4188 17.3119 12.9031 17.1604 13.2084C17.009 13.5138 16.7425 13.977 16.5702 14.235C16.3978 14.4929 16.0791 14.9088 15.8701 15.1563C15.656 15.4037 15.2851 15.7775 15.0448 15.988C14.7993 16.1986 14.3866 16.5197 14.1306 16.6935C13.8746 16.8672 13.4149 17.1357 13.1119 17.2883C12.809 17.441 12.3284 17.6516 12.041 17.7516C11.7537 17.8516 11.294 17.9832 11.0224 18.0412C10.7507 18.0991 10.2963 18.1728 10.0142 18.2044C9.73731 18.2359 9.30896 18.2623 9.06343 18.2623C8.81791 18.2623 8.38955 18.2359 8.10746 18.2044C7.8306 18.1728 7.37612 18.0991 7.10448 18.0412C6.83284 17.9832 6.37313 17.8516 6.08582 17.7516C5.79851 17.6516 5.31791 17.441 5.01493 17.2883C4.71194 17.1357 4.25224 16.8672 3.99627 16.6935C3.73507 16.5197 3.32761 16.1986 3.08209 15.988C2.84179 15.7775 2.4709 15.4037 2.25672 15.1563C2.04776 14.9088 1.7291 14.4929 1.55672 14.235C1.38433 13.977 1.11791 13.5138 0.966418 13.2084C0.814925 12.9031 0.60597 12.4188 0.506716 12.1292C0.407463 11.8397 0.276866 11.3764 0.219403 11.1027C0.16194 10.8289 0.088806 10.3709 0.0574627 10.0866C0.0261194 9.8076 0 9.3759 0 9.1285C0 8.8811 0.0261194 8.4494 0.0574627 8.1651C0.088806 7.8861 0.16194 7.4281 0.219403 7.1543C0.276866 6.8806 0.407463 6.4173 0.506716 6.1278C0.60597 5.83824 0.814925 5.35391 0.966418 5.04858C1.11791 4.74324 1.38433 4.28524 1.55672 4.02202C1.7291 3.75879 2.04776 3.34817 2.25672 3.10074C2.4709 2.85331 2.84179 2.47954 3.08209 2.26896C3.32761 2.05839 3.73507 1.73726 3.99627 1.56353C4.25224 1.38981 4.71194 1.12132 5.01493 0.96865C5.31791 0.81598 5.79851 0.60541 6.08582 0.50538C6.37313 0.40536 6.84328 0.27375 7.1306 0.21584C7.41791 0.15793 7.75746 0.08423 7.88806 0.05791C8.01866 0.03159 8.5306 0.00526 9.02164 0H9.02687ZM6.95299 2.41637C6.68134 2.5006 6.25821 2.66906 6.01269 2.79014C5.76716 2.90596 5.35448 3.15339 5.09851 3.32711C4.83731 3.5061 4.40373 3.87988 4.13209 4.15363C3.86045 4.43264 3.55746 4.76956 3.46343 4.90644L3.29627 5.15386C4.03806 5.74874 4.45075 6.012 4.83731 6.2067C5.21343 6.3963 5.67313 6.5805 5.98657 6.6648C6.46194 6.7911 6.59254 6.8069 7.44925 6.8069C8.30597 6.8069 8.43657 6.7911 8.91194 6.6648C9.19925 6.5858 9.64851 6.4173 9.90448 6.2962C10.1604 6.1699 10.5261 5.96458 10.7142 5.83824C10.9022 5.70663 11.247 5.42761 11.4873 5.20651L11.9209 4.81168L13.3522 6.2541C12.741 6.9332 12.4642 7.2807 12.3336 7.4702C12.2082 7.6597 12.0045 8.0282 11.8791 8.2862C11.759 8.5441 11.5918 8.9969 11.5134 9.2864C11.3881 9.7655 11.3724 9.8971 11.3724 10.7605C11.3724 11.6238 11.3881 11.7554 11.5134 12.2345C11.597 12.5504 11.7799 13.0136 11.9679 13.3927C12.1612 13.7822 12.4224 14.1981 12.647 14.4877L13.0127 14.9457C13.394 14.6825 13.7284 14.3771 14.0052 14.1034C14.2769 13.8296 14.6478 13.3874 14.8202 13.1295C14.9978 12.8715 15.2276 12.4767 15.3373 12.2608C15.447 12.045 15.609 11.6291 15.703 11.3396C15.8022 11.05 15.9172 10.5867 15.959 10.313C16.006 10.034 16.0425 9.5075 16.0425 9.1285C16.0425 8.7495 16.006 8.223 15.959 7.944C15.9172 7.6703 15.8022 7.207 15.703 6.9174C15.609 6.6279 15.447 6.212 15.3373 5.99617C15.2276 5.78033 15.0396 5.44867 14.9142 5.25915C14.794 5.06963 14.5433 4.73798 14.3604 4.52213C14.1776 4.30629 13.8642 3.98516 13.6604 3.8167C13.4619 3.64824 13.1328 3.39555 12.9343 3.25867C12.7306 3.1218 12.391 2.92175 12.1769 2.8112C11.9627 2.70065 11.55 2.53745 11.2627 2.44269C10.9754 2.34267 10.5157 2.22685 10.244 2.18473C9.94105 2.13209 9.46567 2.1005 9.01642 2.10577C8.61418 2.10577 8.09702 2.14262 7.86716 2.18473C7.63731 2.22685 7.22463 2.32687 6.95299 2.41637ZM2.16791 7.9703C2.12612 8.202 2.09478 8.7231 2.09478 9.1285C2.09478 9.5549 2.13134 10.0656 2.17836 10.3393C2.22015 10.5973 2.33507 11.05 2.4291 11.3396C2.52836 11.6291 2.6903 12.045 2.8 12.2608C2.9097 12.4767 3.09254 12.8031 3.21269 12.9873C3.33284 13.1663 3.43731 13.3137 3.45299 13.3137C3.46866 13.3137 4.45075 12.3345 5.63657 11.1448L7.78881 8.9706C6.83806 8.9074 6.36269 8.8547 6.11716 8.8126C5.87164 8.7705 5.4694 8.6758 5.21343 8.6021C4.96269 8.5284 4.53955 8.3757 4.27313 8.2599C4.01194 8.1441 3.62537 7.9493 3.42687 7.8282C3.22313 7.7071 2.91493 7.4913 2.73209 7.3544C2.55448 7.2175 2.39776 7.1017 2.38209 7.1017C2.37164 7.1017 2.33507 7.2017 2.29851 7.3281C2.26716 7.4492 2.2097 7.7387 2.16791 7.9703ZM7.04701 12.603C5.80373 13.8612 4.91045 14.8088 4.94179 14.8299C4.97313 14.8509 5.12985 14.9562 5.29702 15.0668C5.45896 15.1721 5.76716 15.3458 5.9709 15.4511C6.17985 15.5564 6.58731 15.7196 6.87463 15.8196C7.16194 15.9143 7.60597 16.0302 7.86716 16.0723C8.13881 16.1196 8.64552 16.1565 9.06866 16.1565C9.4709 16.1565 9.98806 16.1249 10.2179 16.0828C10.4478 16.0407 10.7351 15.9828 10.8552 15.9512C10.9806 15.9196 11.0799 15.8827 11.0799 15.867C11.0799 15.8512 10.9649 15.6932 10.8291 15.5142C10.6933 15.33 10.4791 15.0194 10.359 14.8141C10.2388 14.6088 10.0455 14.2245 9.9306 13.9612C9.81567 13.6927 9.66418 13.2663 9.59105 13.0136C9.51791 12.7557 9.42388 12.3345 9.38209 12.0766C9.33508 11.8186 9.28284 11.3343 9.25672 11.0079L9.2097 10.413L7.04701 12.603ZM74.9104 4.838L75.1769 5.53817C75.3231 5.92247 76.044 7.7966 76.7858 9.7023C77.5224 11.6133 78.1493 13.1821 78.1754 13.1926C78.2067 13.1979 78.9328 11.3238 81.3619 4.84326L84 4.838L83.8799 5.16966C83.8119 5.34865 82.3388 9.1917 80.6045 13.7085C78.8754 18.2254 77.4336 21.9421 77.4022 21.9631C77.3709 21.9842 76.8328 22 76.206 22C75.344 22 75.0619 21.9842 75.041 21.9368C75.0306 21.9 75.4485 20.6839 76.9269 16.604L76.603 15.8143C76.4306 15.3826 75.3649 12.7452 74.2418 9.9603C73.1187 7.1701 72.194 4.88012 72.194 4.86432C72.194 4.85379 72.8052 4.838 74.9104 4.838ZM28.8254 0.57909C29.5672 0.57382 29.9172 0.60014 30.3925 0.68437C30.7321 0.74228 31.2545 0.87389 31.5522 0.97392C31.8552 1.07921 32.2888 1.2582 32.5187 1.37928C32.7485 1.50036 33.1246 1.74252 33.3545 1.91625C33.5843 2.08471 33.9291 2.38478 34.1172 2.5743C34.3052 2.76382 34.5978 3.10601 34.7701 3.33764C34.9425 3.56928 35.2037 3.99569 35.35 4.28524C35.4963 4.57478 35.6843 4.9854 35.7679 5.19598C35.8515 5.40129 35.9037 5.58555 35.8881 5.59608C35.8776 5.6066 35.2925 5.77507 34.5978 5.96459C33.903 6.1541 33.3075 6.312 33.2761 6.312C33.25 6.312 33.2239 6.2857 33.2239 6.2489C33.2239 6.212 33.1455 5.99091 33.0515 5.75927C32.9575 5.52764 32.7694 5.16966 32.6336 4.95908C32.503 4.7485 32.2575 4.4379 32.0903 4.27471C31.9231 4.10625 31.6724 3.8904 31.5261 3.79038C31.3851 3.69036 31.1239 3.54295 30.9515 3.46399C30.7791 3.37976 30.45 3.26394 30.2201 3.20077C29.8701 3.10601 29.656 3.08495 28.8881 3.07968C28.1881 3.07968 27.8903 3.10074 27.6082 3.16918C27.4097 3.22182 27.1172 3.31132 26.9552 3.37449C26.7985 3.43766 26.5269 3.57454 26.3545 3.67456C26.1821 3.77459 25.8425 4.05887 25.597 4.30629C25.3045 4.60637 25.0746 4.90117 24.9231 5.18019C24.7925 5.41182 24.6097 5.82771 24.5209 6.1015C24.4269 6.3805 24.3172 6.7858 24.2701 7.0122C24.2284 7.2333 24.1657 7.7229 24.1343 8.0914C24.0873 8.5863 24.0925 8.9548 24.1343 9.497C24.1657 9.9024 24.2388 10.4393 24.291 10.6815C24.3433 10.9289 24.4634 11.3343 24.5522 11.5765C24.641 11.8239 24.7873 12.1555 24.8761 12.3135C24.9649 12.4767 25.1373 12.7346 25.2627 12.8926C25.3828 13.0558 25.5866 13.2769 25.7119 13.3979C25.8373 13.5138 26.0567 13.6875 26.1978 13.7875C26.344 13.8875 26.6104 14.0349 26.7881 14.1139C26.9657 14.1981 27.3209 14.314 27.5716 14.3771C27.9425 14.4719 28.1828 14.4929 28.8358 14.4929C29.3843 14.4929 29.7657 14.4666 30.0112 14.4087C30.2149 14.3666 30.544 14.2613 30.7425 14.1823C30.9463 14.1034 31.2388 13.9507 31.3955 13.8507C31.5575 13.7507 31.8239 13.5348 31.991 13.3716C32.1582 13.2084 32.3985 12.9347 32.5239 12.7609C32.6493 12.5872 32.8425 12.245 32.9575 11.9976C33.0724 11.7554 33.1821 11.487 33.1978 11.408C33.2134 11.329 33.2604 11.2606 33.3022 11.2606C33.3493 11.2606 33.9396 11.4185 34.6239 11.608C35.3082 11.7976 35.8724 11.9608 35.8776 11.966C35.8881 11.966 35.8306 12.1503 35.7522 12.3661C35.6791 12.5872 35.5328 12.9294 35.4336 13.1295C35.3343 13.3348 35.1201 13.7033 34.9634 13.9454C34.8015 14.1929 34.4567 14.6193 34.1903 14.893C33.9239 15.1721 33.5216 15.53 33.297 15.6932C33.0724 15.8564 32.6754 16.0986 32.4142 16.2302C32.1582 16.3618 31.7716 16.525 31.5522 16.5987C31.3381 16.6724 30.9149 16.783 30.6119 16.8514C30.1418 16.9514 29.9067 16.9672 28.8881 16.9725C27.9687 16.9725 27.6082 16.9514 27.2164 16.8777C26.9448 16.8251 26.4746 16.704 26.1716 16.5987C25.8739 16.4987 25.4194 16.3039 25.1634 16.167C24.9075 16.0302 24.5104 15.7775 24.2754 15.5985C24.0403 15.4195 23.6642 15.0773 23.4396 14.8351C23.2097 14.593 22.9015 14.2034 22.75 13.9718C22.5985 13.7401 22.3843 13.3611 22.2694 13.1295C22.1545 12.8978 21.9821 12.4977 21.8933 12.2345C21.7993 11.9765 21.6791 11.5607 21.6216 11.3132C21.5642 11.0711 21.4806 10.6183 21.444 10.313C21.4022 10.0077 21.3709 9.3128 21.3709 8.76C21.3709 8.1809 21.4022 7.5386 21.444 7.2333C21.4858 6.9438 21.5537 6.5437 21.6007 6.3384C21.6478 6.1383 21.7575 5.74874 21.8463 5.46973C21.9351 5.19598 22.1179 4.7485 22.2537 4.46949C22.3896 4.19574 22.6246 3.77985 22.7813 3.54822C22.9328 3.31658 23.241 2.94281 23.4552 2.71644C23.6746 2.48481 23.9881 2.18473 24.1604 2.04786C24.3328 1.91098 24.6619 1.68461 24.8918 1.54774C25.1216 1.41086 25.4978 1.22134 25.7276 1.12659C25.9575 1.03183 26.3231 0.90548 26.5373 0.84231C26.7567 0.7844 27.1433 0.70017 27.3993 0.65805C27.6657 0.61594 28.2873 0.58435 28.8254 0.57909ZM37.7687 0.57382H40.3806V16.6829H37.7687V0.57382ZM68.3284 0.57382H70.9403V16.6829H68.3284V0.57382ZM60.9261 4.5274C61.5112 4.52213 61.8246 4.54846 62.2321 4.63269C62.5246 4.6906 62.9425 4.81168 63.1567 4.90117C63.3761 4.9854 63.7261 5.16439 63.9403 5.30127C64.1702 5.43814 64.5358 5.74874 64.8022 6.0225C65.1052 6.3278 65.3612 6.6542 65.5179 6.9227C65.6537 7.1491 65.8209 7.486 65.894 7.6703C65.9724 7.8492 66.0925 8.2072 66.1657 8.4599C66.2388 8.7126 66.3328 9.1864 66.3746 9.5128C66.4164 9.8392 66.4478 10.4025 66.4478 10.7605C66.4478 11.2343 66.4321 11.4291 66.3851 11.4606C66.3485 11.4817 64.4261 11.4922 57.9067 11.4659L57.9485 11.7818C57.9694 11.9608 58.053 12.2977 58.1313 12.5398C58.2097 12.7767 58.3612 13.1084 58.4709 13.2769C58.5806 13.4401 58.7687 13.677 58.894 13.8033C59.0246 13.9244 59.2388 14.0876 59.3798 14.1665C59.5209 14.2455 59.8187 14.3613 60.0485 14.4192C60.3202 14.4877 60.6336 14.5245 60.9366 14.5245C61.2448 14.5245 61.5582 14.4877 61.8246 14.4192C62.0545 14.3613 62.3522 14.2508 62.4776 14.1823C62.6082 14.1086 62.8224 13.9612 62.9478 13.8507C63.0784 13.7401 63.303 13.4716 63.444 13.2611C63.5851 13.0452 63.7 12.861 63.7052 12.8557C63.7052 12.8504 64.1284 12.9768 64.6455 13.1347C65.1627 13.2927 65.7478 13.4716 66.291 13.6296L66.0925 14.0402C65.9776 14.2613 65.7791 14.593 65.6485 14.7772C65.5127 14.9562 65.2828 15.23 65.1313 15.3826C64.9799 15.5353 64.703 15.7669 64.5149 15.9038C64.3321 16.0354 64.0239 16.2302 63.8358 16.3302C63.653 16.4355 63.2873 16.5934 63.0261 16.6829C62.7701 16.7724 62.3575 16.883 62.1119 16.9251C61.8716 16.9672 61.3858 16.9988 61.041 16.9988C60.6963 16.9988 60.1948 16.962 59.9179 16.9198C59.6463 16.8725 59.2179 16.7672 58.9672 16.6829C58.7164 16.5987 58.3873 16.4618 58.2358 16.3881C58.0843 16.3092 57.797 16.1354 57.5933 15.9986C57.3948 15.8617 57.0918 15.6195 56.9246 15.4669C56.7522 15.3089 56.4754 14.9931 56.303 14.7614C56.1306 14.5298 55.8746 14.1034 55.7336 13.8138C55.5925 13.5243 55.4306 13.1347 55.3784 12.9452C55.3209 12.7609 55.2373 12.3924 55.1955 12.1292C55.1433 11.8397 55.1119 11.3448 55.1119 10.8394C55.1172 10.3814 55.1485 9.8181 55.1903 9.5497C55.2321 9.2917 55.3261 8.8653 55.4045 8.6021C55.4776 8.3441 55.6291 7.9387 55.744 7.7071C55.8537 7.4755 56.047 7.1333 56.1672 6.9438C56.2925 6.7595 56.559 6.4279 56.7679 6.2067C56.9716 5.99091 57.3112 5.69084 57.5254 5.54343C57.7343 5.39603 58.0582 5.20124 58.2358 5.11175C58.4134 5.01699 58.7321 4.88538 58.941 4.81694C59.15 4.74324 59.5052 4.65375 59.7351 4.61163C59.9701 4.56951 60.4978 4.53266 60.9261 4.5274ZM59.8396 6.9964C59.6672 7.0596 59.4321 7.1649 59.3172 7.228C59.2022 7.2965 58.9933 7.4702 58.847 7.6123C58.706 7.7598 58.5022 8.0388 58.3978 8.2388C58.2933 8.4389 58.1575 8.7705 58.0948 8.9706C58.0373 9.1759 57.9851 9.3707 57.9851 9.4075C57.9851 9.4602 58.5963 9.4707 60.8582 9.4707C63.5642 9.4707 63.7313 9.4654 63.7313 9.3812C63.7313 9.3285 63.6843 9.0916 63.6269 8.8547C63.5694 8.6126 63.4545 8.2757 63.3657 8.1019C63.2821 7.9282 63.1097 7.6755 62.9896 7.5439C62.8694 7.4123 62.6709 7.2438 62.556 7.1807C62.441 7.1122 62.2425 7.0175 62.1119 6.9701C61.9866 6.9227 61.6888 6.8701 61.459 6.849C61.2291 6.8279 60.8425 6.8279 60.597 6.849C60.3567 6.8701 60.0119 6.9332 59.8396 6.9964ZM42.6739 4.838H45.2963L45.3172 8.1177C45.3276 10.7921 45.3485 11.487 45.4164 11.8923C45.4582 12.1713 45.5418 12.524 45.5993 12.682C45.6515 12.8452 45.756 13.0926 45.8291 13.2347C45.9022 13.3821 46.0746 13.6296 46.2209 13.7875C46.3619 13.9507 46.597 14.1402 46.7381 14.2192C46.8739 14.2982 47.1455 14.3982 47.3284 14.4456C47.5164 14.4877 47.8351 14.5245 48.0336 14.5245C48.2373 14.5245 48.5873 14.4771 48.8172 14.4192C49.047 14.3613 49.3448 14.2508 49.4701 14.1718C49.6007 14.0928 49.8149 13.9244 49.9403 13.7875C50.0709 13.6559 50.2537 13.4032 50.3425 13.2347C50.4313 13.061 50.5463 12.7925 50.5881 12.6293C50.6351 12.4714 50.7082 12.0345 50.75 11.6554C50.8127 11.1237 50.8284 10.3025 50.8284 4.838H53.4403V16.6829H51.1418L51.147 16.0933C51.147 15.7669 51.1366 15.4879 51.1209 15.4721C51.1052 15.4616 50.959 15.5721 50.7918 15.7301C50.6246 15.8827 50.3269 16.1196 50.1231 16.2513C49.9246 16.3881 49.559 16.5724 49.3134 16.6671C49.0731 16.7566 48.6604 16.8725 48.3993 16.9251C48.0336 16.9935 47.7463 17.0041 47.0672 16.983C46.3985 16.962 46.1216 16.9304 45.8134 16.8461C45.5993 16.783 45.2388 16.6303 45.009 16.5092C44.7112 16.3565 44.4657 16.167 44.1679 15.867C43.891 15.5985 43.656 15.2984 43.4993 15.0246C43.3634 14.793 43.1858 14.414 43.1022 14.1823C43.0187 13.9507 42.8985 13.5243 42.8358 13.2347C42.7157 12.7188 42.7157 12.6451 42.6948 8.7758L42.6739 4.838Z" fill="#040406"/>
</g>
<defs>
<clipPath id="clip0_2303_24815">
<rect width="84" height="22" fill="white"/>
</clipPath>
</defs>
</svg>
